<?xml version="1.0" encoding="UTF-8" standalone="no"?>
<!-- Created with Inkscape (http://www.inkscape.org/) -->

<svg
   xmlns:dc="http://purl.org/dc/elements/1.1/"
   xmlns:cc="http://creativecommons.org/ns#"
   xmlns:rdf="http://www.w3.org/1999/02/22-rdf-syntax-ns#"
   xmlns:svg="http://www.w3.org/2000/svg"
   xmlns="http://www.w3.org/2000/svg"
   xmlns:sodipodi="http://sodipodi.sourceforge.net/DTD/sodipodi-0.dtd"
   xmlns:inkscape="http://www.inkscape.org/namespaces/inkscape"
   width="448.00021mm"
   height="168.67464mm"
   viewBox="0 0 1587.4023 597.66603"
   id="svg2"
   version="1.1"
   inkscape:version="0.91 r"
   sodipodi:docname="logo-trane.svg">
  <defs
     id="defs4">
    <symbol
       id="symbol13879">
      <title
         id="title13881">Gradient</title>
      <path
         d="m 22,18 4,0 0,4 -4,0 z m -4,4 4,0 0,4 -4,0 z m 8,0 4,0 0,4 -4,0 z m 4,-4 4,0 0,4 -4,0 z m -16,0 4,0 0,4 -4,0 z M 38,6 10,6 C 7.8,6 6,7.8 6,10 l 0,28 c 0,2.2 1.8,4 4,4 l 28,0 c 2.2,0 4,-1.8 4,-4 L 42,10 C 42,7.8 40.2,6 38,6 Z m -20,30 -4,0 0,-4 4,0 0,4 z m 8,0 -4,0 0,-4 4,0 0,4 z m 8,0 -4,0 0,-4 4,0 0,4 z m 4,-14 -4,0 0,4 4,0 0,4 -4,0 0,-4 -4,0 0,4 -4,0 0,-4 -4,0 0,4 -4,0 0,-4 -4,0 0,4 -4,0 0,-4 4,0 0,-4 -4,0 0,-12 28,0 0,12 z"
         style="stroke:none"
         id="path13883"
         inkscape:connector-curvature="0" />
    </symbol>
  </defs>
  <sodipodi:namedview
     id="base"
     pagecolor="#ffffff"
     bordercolor="#666666"
     borderopacity="1.0"
     inkscape:pageopacity="0.0"
     inkscape:pageshadow="2"
     inkscape:zoom="0.49497475"
     inkscape:cx="796.83247"
     inkscape:cy="430.76007"
     inkscape:document-units="px"
     inkscape:current-layer="layer2"
     showgrid="false"
     fit-margin-top="0"
     fit-margin-left="0"
     fit-margin-right="0"
     fit-margin-bottom="0"
     borderlayer="true"
     inkscape:window-width="1920"
     inkscape:window-height="1056"
     inkscape:window-x="1920"
     inkscape:window-y="24"
     inkscape:window-maximized="1" />
  <metadata
     id="metadata7">
    <rdf:RDF>
      <cc:Work
         rdf:about="">
        <dc:format>image/svg+xml</dc:format>
        <dc:type
           rdf:resource="http://purl.org/dc/dcmitype/StillImage" />
        <dc:title></dc:title>
      </cc:Work>
    </rdf:RDF>
  </metadata>
  <g
     inkscape:label="graffity"
     inkscape:groupmode="layer"
     id="layer1"
     transform="translate(940,-98.308594)">
    <path
       style="color:#000000;clip-rule:nonzero;display:inline;overflow:visible;visibility:visible;opacity:1;isolation:auto;mix-blend-mode:normal;color-interpolation:sRGB;color-interpolation-filters:linearRGB;solid-color:#000000;solid-opacity:1;fill:#000000;fill-opacity:1;fill-rule:nonzero;stroke:none;stroke-width:1;stroke-linecap:butt;stroke-linejoin:miter;stroke-miterlimit:4;stroke-dasharray:none;stroke-dashoffset:0;stroke-opacity:1;color-rendering:auto;image-rendering:auto;shape-rendering:auto;text-rendering:auto;enable-background:accumulate"
       d="m 205.81836,98.308594 0,33.843746 33.8457,0 0,-33.843746 -33.8457,0 z m 71.37109,38.539066 0,33.8457 33.84375,0 0,-33.8457 -33.84375,0 z m -71.37109,37.11328 0,33.84375 33.8457,0 0,-33.84375 -33.8457,0 z m 145.5957,0 0,33.84375 33.84375,0 0,-33.84375 -33.84375,0 z m 77.07813,0 0,33.84375 33.8457,0 0,-33.84375 -33.8457,0 z m 75.65234,0 0,33.84375 33.84375,0 0,-33.84375 -33.84375,0 z M 277.18945,212.5 l 0,33.84375 33.84375,0 0,-33.84375 -33.84375,0 z m 184.38867,1.42773 0,32.83008 -33.08593,0 0,32.83008 -41.17188,0 0,33.84375 0.0215,0 0,348.69922 -0.0215,0 0,33.84375 260.08203,0 0,-33.84375 -0.0566,0 0,-348.69922 0.0566,0 0,-33.84375 -39.4707,0 0,-32.83008 -32.98242,0 0,-32.83008 -113.3711,0 z m 0.75977,33.84375 111.74805,0 0,31.81641 -111.74805,0 0,-31.81641 z m -256.51953,3.26758 0,33.84571 33.8457,0 0,-33.84571 -33.8457,0 z m 215.36719,62.39258 192.31445,0 0,348.69922 -192.31445,0 0,-348.69922 z"
       id="rect15291"
       inkscape:connector-curvature="0" />
    <path
       style="color:#000000;clip-rule:nonzero;display:inline;overflow:visible;visibility:visible;opacity:1;isolation:auto;mix-blend-mode:normal;color-interpolation:sRGB;color-interpolation-filters:linearRGB;solid-color:#000000;solid-opacity:1;fill:#000000;fill-opacity:1;fill-rule:nonzero;stroke:none;stroke-width:1;stroke-linecap:butt;stroke-linejoin:miter;stroke-miterlimit:4;stroke-dasharray:none;stroke-dashoffset:0;stroke-opacity:1;color-rendering:auto;image-rendering:auto;shape-rendering:auto;text-rendering:auto;enable-background:accumulate"
       d="m 522.12305,378.58203 0,0.008 -16.94532,0 0,219.20313 31.31446,0 0,-0.0625 83.61523,0 0,-26.51563 -83.61523,0 0,-166.11523 83.61523,0 0,-26.51758 -97.98437,0 z"
       id="rect16548"
       inkscape:connector-curvature="0" />
    <rect
       style="color:#000000;clip-rule:nonzero;display:inline;overflow:visible;visibility:visible;opacity:1;isolation:auto;mix-blend-mode:normal;color-interpolation:sRGB;color-interpolation-filters:linearRGB;solid-color:#000000;solid-opacity:1;fill:#000000;fill-opacity:1;fill-rule:nonzero;stroke:none;stroke-width:1;stroke-linecap:butt;stroke-linejoin:miter;stroke-miterlimit:4;stroke-dasharray:none;stroke-dashoffset:0;stroke-opacity:1;color-rendering:auto;image-rendering:auto;shape-rendering:auto;text-rendering:auto;enable-background:accumulate"
       id="rect16555"
       width="28.928572"
       height="28.928572"
       x="533.92859"
       y="543.79077" />
    <rect
       y="543.79077"
       x="587.92859"
       height="28.928572"
       width="28.928572"
       id="rect16557"
       style="color:#000000;clip-rule:nonzero;display:inline;overflow:visible;visibility:visible;opacity:1;isolation:auto;mix-blend-mode:normal;color-interpolation:sRGB;color-interpolation-filters:linearRGB;solid-color:#000000;solid-opacity:1;fill:#000000;fill-opacity:1;fill-rule:nonzero;stroke:none;stroke-width:1;stroke-linecap:butt;stroke-linejoin:miter;stroke-miterlimit:4;stroke-dasharray:none;stroke-dashoffset:0;stroke-opacity:1;color-rendering:auto;image-rendering:auto;shape-rendering:auto;text-rendering:auto;enable-background:accumulate" />
    <rect
       style="color:#000000;clip-rule:nonzero;display:inline;overflow:visible;visibility:visible;opacity:1;isolation:auto;mix-blend-mode:normal;color-interpolation:sRGB;color-interpolation-filters:linearRGB;solid-color:#000000;solid-opacity:1;fill:#000000;fill-opacity:1;fill-rule:nonzero;stroke:none;stroke-width:1;stroke-linecap:butt;stroke-linejoin:miter;stroke-miterlimit:4;stroke-dasharray:none;stroke-dashoffset:0;stroke-opacity:1;color-rendering:auto;image-rendering:auto;shape-rendering:auto;text-rendering:auto;enable-background:accumulate"
       id="rect16559"
       width="28.928572"
       height="28.928572"
       x="561.92859"
       y="517.79077" />
    <rect
       y="491.79077"
       x="589.92859"
       height="28.928572"
       width="28.928572"
       id="rect16561"
       style="color:#000000;clip-rule:nonzero;display:inline;overflow:visible;visibility:visible;opacity:1;isolation:auto;mix-blend-mode:normal;color-interpolation:sRGB;color-interpolation-filters:linearRGB;solid-color:#000000;solid-opacity:1;fill:#000000;fill-opacity:1;fill-rule:nonzero;stroke:none;stroke-width:1;stroke-linecap:butt;stroke-linejoin:miter;stroke-miterlimit:4;stroke-dasharray:none;stroke-dashoffset:0;stroke-opacity:1;color-rendering:auto;image-rendering:auto;shape-rendering:auto;text-rendering:auto;enable-background:accumulate" />
    <rect
       style="color:#000000;clip-rule:nonzero;display:inline;overflow:visible;visibility:visible;opacity:1;isolation:auto;mix-blend-mode:normal;color-interpolation:sRGB;color-interpolation-filters:linearRGB;solid-color:#000000;solid-opacity:1;fill:#000000;fill-opacity:1;fill-rule:nonzero;stroke:none;stroke-width:1;stroke-linecap:butt;stroke-linejoin:miter;stroke-miterlimit:4;stroke-dasharray:none;stroke-dashoffset:0;stroke-opacity:1;color-rendering:auto;image-rendering:auto;shape-rendering:auto;text-rendering:auto;enable-background:accumulate"
       id="rect16563"
       width="28.928572"
       height="28.928572"
       x="533.92859"
       y="491.79077" />
    <rect
       y="463.79077"
       x="561.92859"
       height="28.928572"
       width="28.928572"
       id="rect16565"
       style="color:#000000;clip-rule:nonzero;display:inline;overflow:visible;visibility:visible;opacity:1;isolation:auto;mix-blend-mode:normal;color-interpolation:sRGB;color-interpolation-filters:linearRGB;solid-color:#000000;solid-opacity:1;fill:#000000;fill-opacity:1;fill-rule:nonzero;stroke:none;stroke-width:1;stroke-linecap:butt;stroke-linejoin:miter;stroke-miterlimit:4;stroke-dasharray:none;stroke-dashoffset:0;stroke-opacity:1;color-rendering:auto;image-rendering:auto;shape-rendering:auto;text-rendering:auto;enable-background:accumulate" />
  </g>
  <g
     inkscape:groupmode="layer"
     id="layer2"
     inkscape:label="text">
    <g
       transform="translate(940,-98.308594)"
       style="font-style:normal;font-weight:normal;font-size:574.39471436px;line-height:125%;font-family:Sans;letter-spacing:0px;word-spacing:0px;fill:#000000;fill-opacity:1;stroke:none;stroke-width:1px;stroke-linecap:butt;stroke-linejoin:miter;stroke-opacity:1"
       id="text15287">
      <path
         d="m -709.66772,421.3755 -61.46023,0 0,230.90668 -56.29069,0 0,-230.90668 -112.58136,0 0,-58.01386 54.5675,0 0,-51.12113 175.76478,0 0,109.13499 z"
         style="font-style:normal;font-variant:normal;font-weight:normal;font-stretch:normal;font-family:pixellife;-inkscape-font-specification:pixellife"
         id="path16570"
         inkscape:connector-curvature="0" />
      <path
         d="m -430.98757,608.62818 -42.50521,0 0,-84.43602 -86.15921,0 0,84.43602 -85.58481,0 0,-216.54681 45.95158,0 0,-43.65399 129.23881,0 0,128.66441 39.05884,0 0,131.53639 z m -87.308,-133.25957 0,-80.41526 -39.63323,0 0,80.41526 39.63323,0 z"
         style="font-style:normal;font-variant:normal;font-weight:normal;font-stretch:normal;font-family:pixellife;-inkscape-font-specification:pixellife"
         id="path16572"
         inkscape:connector-curvature="0" />
      <path
         d="m -204.37989,608.05379 -47.10036,0 0,-43.07961 -40.20763,0 0,43.07961 -85.58482,0 0,-215.97242 40.78203,0 0,-44.22839 132.11078,0 0,260.20081 z m -45.95157,-86.73361 0,-85.58481 -39.63324,0 0,85.58481 39.63324,0 z"
         style="font-style:normal;font-variant:normal;font-weight:normal;font-stretch:normal;font-family:pixellife;-inkscape-font-specification:pixellife"
         id="path16574"
         inkscape:connector-curvature="0" />
      <path
         d="m 120.40444,608.62818 -129.2388077,0 0,-212.52604 -40.2076303,0 0,212.52604 -85.584812,0 0,-216.54681 40.782025,0 0,-43.65399 134.408363,0 0,213.10043 40.20763,0 0,-213.10043 39.633232,0 0,260.2008 z"
         style="font-style:normal;font-variant:normal;font-weight:normal;font-stretch:normal;font-family:pixellife;-inkscape-font-specification:pixellife"
         id="path16576"
         inkscape:connector-curvature="0" />
      <path
         d="m 349.82128,609.77697 -172.8928,0 0,-215.97241 45.95157,0 0,-44.22839 126.94123,0 0,47.67476 -84.43602,0 0,86.1592 43.654,0 0,41.93082 -43.654,0 0,39.63323 84.43602,0 0,44.80279 z"
         style="font-style:normal;font-variant:normal;font-weight:normal;font-stretch:normal;font-family:pixellife;-inkscape-font-specification:pixellife"
         id="path16578"
         inkscape:connector-curvature="0" />
    </g>
  </g>
</svg>
